<svg width="52" height="52" viewBox="0 0 52 52" fill="none" xmlns="http://www.w3.org/2000/svg">
<path d="M17.3359 34.6668L34.6693 17.3335M18.4188 18.4167H19.7188M18.4188 19.7167H19.7188M32.2855 32.2834H33.5855M32.2855 33.5834H33.5855M44.2408 19.9689C43.6046 19.1199 43.2511 18.2002 43.1097 17.1389L42.5442 13.2478C42.2614 11.1961 40.6356 9.56887 38.5148 9.21513L34.6269 8.64914C33.6372 8.50765 32.6475 8.08316 31.7992 7.51717L28.7595 5.25322C27.9113 4.61649 26.9216 4.3335 25.9319 4.3335C24.9422 4.3335 23.9526 4.61649 23.1043 5.25322L19.9939 7.58792C19.1456 8.22465 18.2266 8.57839 17.1663 8.71989L13.349 9.28588C11.299 9.56887 9.67308 11.1961 9.31962 13.3185L8.7541 17.2097C8.61272 18.2002 8.18858 19.1906 7.62305 20.0396L5.29026 23.1525C4.01783 24.8505 4.01783 27.1852 5.29026 28.8124L7.62305 31.9253C8.25927 32.7743 8.61272 33.694 8.7541 34.7553L9.31962 38.6464C9.60239 40.6981 11.2283 42.3253 13.349 42.6791L17.237 43.2451C18.2266 43.3866 19.2163 43.811 20.0646 44.377L23.175 46.7117C24.8716 47.9852 27.2043 47.9852 28.8302 46.7117L31.9406 44.377C32.7889 43.7403 33.7079 43.3866 34.7682 43.2451L38.6562 42.6791C40.7062 42.3961 42.3321 40.7689 42.6856 38.6464L43.2511 34.7553C43.3925 33.7648 43.8166 32.7743 44.3822 31.9253L46.715 28.8124C47.9874 27.1144 47.9874 24.7798 46.715 23.1525L44.2408 19.9689ZM20.8026 19.0668C20.8026 20.0241 20.0266 20.8002 19.0693 20.8002C18.112 20.8002 17.3359 20.0241 17.3359 19.0668C17.3359 18.1095 18.112 17.3335 19.0693 17.3335C20.0266 17.3335 20.8026 18.1095 20.8026 19.0668ZM34.6693 32.9335C34.6693 33.8908 33.8932 34.6668 32.9359 34.6668C31.9786 34.6668 31.2026 33.8908 31.2026 32.9335C31.2026 31.9762 31.9786 31.2002 32.9359 31.2002C33.8932 31.2002 34.6693 31.9762 34.6693 32.9335Z" stroke="#2FDACA" stroke-width="2" stroke-linecap="round"/>
</svg>
