<svg width="52" height="52" viewBox="0 0 52 52" fill="none" xmlns="http://www.w3.org/2000/svg">
<path d="M6.5 45.5H8.66667M45.5 45.5H43.3333M8.66667 45.5V9.7C8.66667 8.57989 8.66667 8.01984 8.88465 7.59202C9.0764 7.21569 9.38236 6.90973 9.75869 6.71799C10.1865 6.5 10.7466 6.5 11.8667 6.5H27.1333C28.2534 6.5 28.8135 6.5 29.2413 6.71799C29.6176 6.90973 29.9236 7.21569 30.1153 7.59202C30.3333 8.01984 30.3333 8.57989 30.3333 9.7V17.3333M8.66667 45.5H19.5H30.3333M30.3333 45.5V17.3333M30.3333 45.5H43.3333M30.3333 17.3333H41.7333C42.2934 17.3333 42.5734 17.3333 42.7873 17.4423C42.9755 17.5382 43.1285 17.6912 43.2243 17.8793C43.3333 18.0933 43.3333 18.3733 43.3333 18.9333V45.5M36.8333 25.9783V26M36.8333 36.8333V36.855" stroke="#2FDACA" stroke-width="2" stroke-linecap="round"/>
<path d="M17.3359 15.1665H21.6693M17.3359 25.9998H21.6693M17.3359 36.8332H21.6693" stroke="#2FDACA" stroke-width="2" stroke-linecap="round"/>
</svg>
