<svg width="40" height="40" viewBox="0 0 40 40" fill="none" xmlns="http://www.w3.org/2000/svg">
<path d="M35.3928 4.60721C35.2004 4.41473 34.9719 4.26203 34.7205 4.15786C34.4691 4.05368 34.1996 4.00006 33.9274 4.00006C33.6552 4.00006 33.3857 4.05368 33.1343 4.15786C32.8829 4.26203 32.6544 4.41473 32.462 4.60721L21.942 15.1272C22.5565 15.454 23.1196 15.8694 23.6132 16.36L23.6416 16.3884C24.1312 16.8832 24.5448 17.4477 24.8692 18.0636L35.3928 7.53961C35.5855 7.34717 35.7384 7.11862 35.8427 6.86703C35.9471 6.61545 36.0008 6.34577 36.0008 6.07341C36.0008 5.80106 35.9471 5.53137 35.8427 5.27979C35.7384 5.0282 35.5855 4.79965 35.3928 4.60721ZM24.2876 24.0528C24.8387 22.8873 25.0178 21.5804 24.8004 20.3096C24.5831 19.0388 23.9799 17.8657 23.0728 16.9496L23.0616 16.9384C23.0581 16.9345 23.0543 16.9307 23.0504 16.9272C22.1343 16.0201 20.9612 15.4169 19.6904 15.1996C18.4196 14.9822 17.1127 15.1613 15.9472 15.7124L24.2876 24.0528ZM15.2208 16.1176C15.1021 16.1949 14.9851 16.2768 14.8696 16.3632C11.8156 18.6556 8.24 20.2216 4 20.8636C4.94557 22.3841 5.9753 23.8507 7.0844 25.2564L10.94 24.1108L9.298 27.8592C9.74733 28.3499 10.2068 28.8299 10.6764 29.2992L10.6988 29.3216C10.7356 29.358 10.7724 29.3948 10.81 29.4312L12.7356 28.5112L13.264 31.6964C13.6256 32.0068 13.9923 32.312 14.364 32.612L17.12 31.418C17.12 31.418 17.074 33.1216 17.0292 34.6096C17.7164 35.0896 18.4195 35.5531 19.1384 36C19.7784 31.76 21.3464 28.1844 23.6388 25.1304C23.7252 25.0152 23.8071 24.8981 23.8844 24.7792L15.2208 16.1176ZM10.7536 8.92641L11.8104 10.8588L13.7424 11.9156L11.8104 12.9724L10.7536 14.9044L9.6968 12.9724L7.7644 11.9156L9.6968 10.8588L10.7536 8.92641ZM19.6712 5.93761L20.728 7.86961L22.66 8.92641L20.728 9.98321L19.6712 11.9156L18.6144 9.98321L16.682 8.92641L18.6144 7.86961L19.6712 5.93761ZM31.0948 17.1764L32.1516 19.1088L34.084 20.1656L32.1516 21.2224L31.0948 23.1544L30.038 21.2224L28.1056 20.1656L30.038 19.1088L31.0948 17.1764ZM27.0236 25.7528L28.0804 27.6848L30.0128 28.7416L28.0804 29.7984L27.0236 31.7308L25.9668 29.7984L24.0348 28.7416L25.9668 27.6848L27.0236 25.7528Z" fill="black"/>
</svg>
