<svg width="40" height="40" viewBox="0 0 40 40" fill="none" xmlns="http://www.w3.org/2000/svg">
<path d="M35.4338 37.0258H33.6681V34.5343C32.2104 34.3368 30.7825 33.9606 29.4167 33.4143V37.0258H19.1652V22.6886C19.1652 22.3058 19.4795 21.9972 19.8624 21.9972H28.7252C29.0052 21.9972 29.2452 22.1629 29.3538 22.4029C29.7138 21.8029 30.0167 21.1915 30.2681 20.62C30.7995 19.4029 31.9195 18.5172 33.1824 18.2772L33.6681 17.1172V5.62004H35.1424C35.4795 5.62004 35.7538 5.34576 35.7538 5.00862V2.72862C35.7538 2.39147 35.4795 2.11719 35.1424 2.11719H13.4395C13.1024 2.11719 12.8281 2.39147 12.8281 2.72862V5.00862C12.8281 5.34576 13.1024 5.62004 13.4395 5.62004H14.9195V37.0258H14.0584V31.4943H6.96125C6.63554 31.4943 6.37839 31.2315 6.37839 30.9115V28.5343C6.37839 28.2143 6.63554 27.9515 6.96125 27.9515H14.0584V24.8429H6.96125C6.63554 24.8429 6.37839 24.58 6.37839 24.26V21.8829C6.37839 21.5629 6.63554 21.3 6.96125 21.3H14.0584V18.1858H6.96125C6.63554 18.1858 6.37839 17.9286 6.37839 17.6029V15.2258C6.37839 14.9058 6.63554 14.6486 6.96125 14.6486H14.0584V8.43719H1.75554C1.49839 8.43719 1.28125 8.64862 1.28125 8.90576V10.6315C1.28125 10.8943 1.49839 11.1058 1.75554 11.1058H2.88696V37.0258H2.14296C2.0293 37.0258 1.92029 37.0709 1.83992 37.1513C1.75955 37.2317 1.71439 37.3407 1.71439 37.4543C1.71439 37.568 1.75955 37.677 1.83992 37.7574C1.92029 37.8377 2.0293 37.8829 2.14296 37.8829H35.4344C35.4907 37.8829 35.5464 37.8717 35.5984 37.8502C35.6504 37.8286 35.6976 37.797 35.7374 37.7572C35.7771 37.7174 35.8087 37.6701 35.8302 37.6181C35.8517 37.5661 35.8627 37.5103 35.8627 37.454C35.8626 37.3978 35.8515 37.342 35.8299 37.2901C35.8084 37.2381 35.7768 37.1908 35.7369 37.1511C35.6971 37.1113 35.6499 37.0798 35.5978 37.0583C35.5458 37.0368 35.4901 37.0257 35.4338 37.0258ZM28.1372 8.63147C28.1372 8.41433 28.3144 8.2429 28.5258 8.2429H31.0173C31.2344 8.2429 31.4058 8.41433 31.4058 8.63147V11.1229C31.4058 11.3343 31.2344 11.5058 31.0173 11.5058H28.5258C28.3144 11.5058 28.1372 11.3343 28.1372 11.1229V8.63147ZM28.1372 14.5458C28.1372 14.3343 28.3144 14.1629 28.5258 14.1629H31.0173C31.2344 14.1629 31.4058 14.3343 31.4058 14.5458V17.0429C31.4058 17.2543 31.2344 17.4258 31.0173 17.4258H28.5258C28.3144 17.4258 28.1372 17.2543 28.1372 17.0429V14.5458ZM26.9601 19.0143C27.0858 19.0143 27.2001 18.9686 27.2858 18.8772C27.3772 18.7858 27.423 18.6715 27.423 18.5515C27.423 18.4829 27.4801 18.42 27.5487 18.42C27.583 18.42 27.6173 18.4315 27.6401 18.4543C27.663 18.4715 27.6858 18.5115 27.6801 18.5458C27.6858 18.6715 27.7315 18.7915 27.823 18.8772C27.9087 18.9686 28.023 19.0143 28.1487 19.0143C28.223 19.0143 28.2801 19.0715 28.2801 19.14C28.2801 19.2143 28.223 19.2715 28.1544 19.2715H28.1487C28.023 19.2715 27.9087 19.3172 27.823 19.4086C27.7349 19.4945 27.6837 19.6113 27.6801 19.7343C27.6858 19.7686 27.6687 19.8029 27.6458 19.8258C27.6115 19.8658 27.5544 19.8772 27.503 19.8543C27.4797 19.8461 27.4599 19.8305 27.4464 19.8098C27.433 19.7891 27.4268 19.7646 27.4287 19.74C27.4258 19.6164 27.3769 19.4982 27.2915 19.4086H27.2858C27.2441 19.3643 27.1936 19.3292 27.1375 19.3056C27.0814 19.2819 27.021 19.2703 26.9601 19.2715C26.9258 19.2715 26.8915 19.26 26.8687 19.2372C26.8458 19.2086 26.8287 19.18 26.8344 19.1458C26.8287 19.0715 26.8858 19.0143 26.9601 19.0143ZM26.0115 19.6486C26.0115 19.7686 25.9144 19.8658 25.8001 19.8658H25.7944C25.583 19.8658 25.383 19.9515 25.2344 20.0943C25.0858 20.2486 25.0001 20.4429 25.0001 20.66C25.0001 20.7172 24.9772 20.7686 24.9372 20.8086C24.8744 20.8715 24.783 20.8943 24.6972 20.86C24.6571 20.8447 24.6228 20.8172 24.5992 20.7813C24.5756 20.7454 24.564 20.703 24.5658 20.66C24.5601 20.4486 24.4801 20.2486 24.3315 20.1L24.3258 20.0943C24.183 19.9515 23.983 19.8658 23.7772 19.8658H23.7715C23.7144 19.8658 23.6572 19.8429 23.6172 19.8029C23.5772 19.7629 23.5544 19.7058 23.5544 19.6486C23.5544 19.5286 23.6515 19.4315 23.7658 19.4315H23.7715C23.983 19.4315 24.1772 19.3458 24.3258 19.1972C24.4801 19.0486 24.5601 18.8486 24.5601 18.6372C24.5601 18.5229 24.6572 18.42 24.7715 18.42C24.8287 18.42 24.8915 18.4372 24.9315 18.4829C24.9658 18.5058 25.0001 18.58 25.0001 18.6372C25.0001 18.8486 25.0858 19.0486 25.2344 19.1972V19.2029C25.383 19.3458 25.583 19.4258 25.7887 19.4315H25.7944C25.9144 19.4258 26.0115 19.5286 26.0115 19.6486ZM22.6572 8.63147C22.6572 8.41433 22.8344 8.2429 23.0458 8.2429H25.5373C25.7544 8.2429 25.9258 8.41433 25.9258 8.63147V11.1229C25.9258 11.3343 25.7544 11.5058 25.5373 11.5058H23.0458C22.8344 11.5058 22.6572 11.3343 22.6572 11.1229V8.63147ZM22.6572 14.5458C22.6572 14.3343 22.8344 14.1629 23.0458 14.1629H25.5373C25.7544 14.1629 25.9258 14.3343 25.9258 14.5458V17.0429C25.9258 17.2543 25.7544 17.4258 25.5373 17.4258H23.0458C22.8344 17.4258 22.6572 17.2543 22.6572 17.0429V14.5458ZM17.1772 8.63147C17.1772 8.41433 17.3544 8.2429 17.5658 8.2429H20.0572C20.2744 8.2429 20.4458 8.41433 20.4458 8.63147V11.1229C20.4458 11.3343 20.2744 11.5058 20.0572 11.5058H17.5658C17.3544 11.5058 17.1772 11.3343 17.1772 11.1229V8.63147ZM17.1772 14.5458C17.1772 14.3343 17.3544 14.1629 17.5658 14.1629H20.0572C20.2744 14.1629 20.4458 14.3343 20.4458 14.5458V17.0429C20.4458 17.2543 20.2744 17.4258 20.0572 17.4258H17.5658C17.3544 17.4258 17.1772 17.2543 17.1772 17.0429V14.5458Z" fill="black"/>
<path d="M36.1916 23.8543L30.7059 21.6943C29.5116 24.1343 27.3573 27.0429 23.7401 27.7858C23.4201 27.8486 23.2944 28.2543 23.5344 28.4886C24.0409 28.9842 24.5719 29.4541 25.1253 29.8966C25.1828 29.8205 25.2647 29.7665 25.3573 29.7435C27.2304 29.308 28.2916 27.404 28.3019 27.3852C28.3593 27.2915 28.4506 27.2234 28.5567 27.195C28.6629 27.1666 28.7759 27.18 28.8725 27.2325C28.9691 27.2849 29.0419 27.3725 29.0758 27.477C29.1098 27.5815 29.1023 27.6951 29.055 27.7943C29.0081 27.8818 27.9259 29.8326 25.8933 30.4812C27.0639 31.3345 28.334 32.0422 29.6756 32.5886C29.6379 29.8663 31.2424 27.7623 31.3127 27.672C31.3834 27.5852 31.4852 27.5295 31.5964 27.5167C31.7076 27.504 31.8194 27.5352 31.9078 27.6038C31.9963 27.6724 32.0544 27.7729 32.0697 27.8838C32.085 27.9947 32.0564 28.1072 31.9899 28.1972C31.9744 28.2172 30.4419 30.2315 30.5316 32.7092C30.5328 32.7734 30.5196 32.8371 30.4927 32.8955C31.4982 33.2439 32.5339 33.4983 33.5864 33.6555C32.5967 31.7492 33.2241 29.588 33.2533 29.4926C33.2859 29.3837 33.3605 29.2923 33.4606 29.2384C33.5607 29.1845 33.6781 29.1725 33.787 29.2052C33.8959 29.2379 33.9873 29.3124 34.0413 29.4125C34.0952 29.5126 34.1071 29.63 34.0744 29.7389C34.0681 29.76 33.4636 31.8543 34.4727 33.4903C34.527 33.5778 34.5396 33.6772 34.527 33.772C35.1419 33.8315 35.767 33.8618 36.4036 33.8601C36.735 33.8543 36.9236 33.4829 36.7464 33.2086C34.6887 30.0772 35.2773 26.4372 36.1916 23.8543ZM35.2716 15.4829L33.7744 19.0715C32.6373 19.1172 31.5401 19.8315 31.0716 20.9172L36.4944 23.0486C36.9601 21.9155 36.6327 20.6675 35.8659 19.9172L37.3459 16.3458C37.4592 16.0714 37.4591 15.7633 37.3456 15.489C37.232 15.2148 37.0143 14.9968 36.7401 14.8829C36.1687 14.6429 35.5116 14.9115 35.2716 15.4829ZM37.2624 25.2412C37.2457 25.2413 37.2292 25.2447 37.2138 25.2512C37.1985 25.2577 37.1845 25.2673 37.1729 25.2792C37.1612 25.2912 37.1521 25.3054 37.146 25.3209C37.1399 25.3365 37.1369 25.3531 37.1373 25.3698C37.1367 25.3866 37.1396 25.4033 37.1458 25.4189C37.152 25.4346 37.1614 25.4488 37.1733 25.4606C37.185 25.4727 37.1992 25.4822 37.2148 25.4884C37.2305 25.4946 37.2473 25.4974 37.2641 25.4966L37.2659 25.4983L37.2676 25.4966C37.3894 25.4978 37.5059 25.5466 37.5921 25.6326L37.5939 25.6343C37.6811 25.7223 37.7305 25.8408 37.7316 25.9646C37.7313 25.9898 37.7385 26.0144 37.7524 26.0354C37.7662 26.0564 37.786 26.0727 37.8093 26.0823C37.8331 26.0919 37.8591 26.0942 37.8843 26.0891C37.9094 26.0839 37.9324 26.0714 37.9504 26.0532C37.9626 26.0415 37.972 26.0273 37.9783 26.0117C37.9845 25.996 37.9872 25.9792 37.9864 25.9623C37.9871 25.8384 38.0366 25.7198 38.1241 25.632C38.2112 25.5451 38.3291 25.4962 38.4521 25.496C38.4521 25.496 38.4539 25.4943 38.4556 25.496C38.4723 25.496 38.4888 25.4926 38.5042 25.486C38.5195 25.4795 38.5335 25.47 38.5451 25.458C38.5568 25.446 38.5659 25.4319 38.572 25.4163C38.5781 25.4008 38.5811 25.3842 38.5807 25.3675C38.5811 25.3507 38.5781 25.334 38.5719 25.3185C38.5656 25.3029 38.5563 25.2888 38.5444 25.2769C38.5326 25.265 38.5184 25.2557 38.5029 25.2495C38.4873 25.2432 38.4706 25.2402 38.4539 25.2406C38.4521 25.2389 38.4521 25.2389 38.4504 25.2406C38.3286 25.2395 38.2121 25.1907 38.1259 25.1046L38.1241 25.1029C38.0369 25.015 37.9875 24.8965 37.9864 24.7726C37.9881 24.7383 37.9664 24.6949 37.9464 24.6818C37.9342 24.6694 37.9194 24.6598 37.9032 24.6536C37.8869 24.6474 37.8695 24.6447 37.8521 24.6458C37.8186 24.6467 37.7868 24.6606 37.7634 24.6846C37.7401 24.7086 37.727 24.7408 37.727 24.7743C37.7275 24.8353 37.7156 24.8958 37.6923 24.9521C37.6689 25.0085 37.6345 25.0596 37.591 25.1023C37.5485 25.1458 37.4977 25.1803 37.4417 25.204C37.3857 25.2276 37.3255 25.2399 37.2647 25.24C37.2659 25.2412 37.2659 25.2412 37.2624 25.2412ZM38.5379 27.9029C38.5356 27.9006 38.5356 27.9006 38.5327 27.9029C38.3639 27.9013 38.2025 27.8336 38.083 27.7143L38.0807 27.712C37.9598 27.5903 37.8913 27.426 37.8899 27.2543C37.8921 27.2063 37.8624 27.1463 37.8344 27.1286C37.8174 27.1115 37.7969 27.0983 37.7743 27.0896C37.7518 27.0809 37.7277 27.0771 37.7036 27.0783C37.6571 27.0795 37.6129 27.0988 37.5805 27.1321C37.548 27.1654 37.5298 27.2101 37.5299 27.2566C37.5321 27.4252 37.4647 27.5886 37.3413 27.7115C37.2824 27.7718 37.212 27.8198 37.1343 27.8526C37.0565 27.8854 36.9731 27.9023 36.8887 27.9023H36.8836C36.8604 27.9026 36.8376 27.9074 36.8163 27.9164C36.795 27.9255 36.7758 27.9388 36.7596 27.9553C36.7435 27.9719 36.7308 27.9915 36.7222 28.013C36.7137 28.0345 36.7095 28.0575 36.7099 28.0806C36.7076 28.1286 36.7276 28.1738 36.7601 28.2063C36.7927 28.2389 36.8379 28.2589 36.8859 28.2566L36.8881 28.2589L36.8904 28.2566C37.059 28.2589 37.2196 28.3246 37.3401 28.4452L37.3424 28.4475C37.463 28.568 37.531 28.7315 37.5333 28.9052C37.5329 28.9401 37.543 28.9743 37.5623 29.0034C37.5815 29.0326 37.609 29.0553 37.6413 29.0686C37.6743 29.0817 37.7104 29.0849 37.7452 29.0778C37.78 29.0707 37.812 29.0536 37.8373 29.0286C37.854 29.0123 37.867 28.9927 37.8757 28.9711C37.8844 28.9494 37.8884 28.9262 37.8876 28.9029C37.8899 28.7292 37.9556 28.5686 38.0784 28.4452C38.199 28.3246 38.3624 28.2566 38.5333 28.2566C38.5333 28.2566 38.5356 28.2543 38.5384 28.2566C38.5616 28.2564 38.5844 28.2516 38.6057 28.2425C38.627 28.2334 38.6462 28.2202 38.6624 28.2036C38.6785 28.1871 38.6912 28.1675 38.6998 28.1459C38.7083 28.1244 38.7125 28.1015 38.7121 28.0783C38.7131 28.0551 38.7093 28.032 38.7009 28.0104C38.6925 27.9887 38.6797 27.969 38.6633 27.9526C38.6469 27.9361 38.6274 27.9232 38.6058 27.9146C38.5842 27.9061 38.5611 27.9021 38.5379 27.9029ZM23.0304 31.5458C23.0133 31.5287 22.9929 31.5154 22.9703 31.5067C22.9478 31.4981 22.9237 31.4942 22.8996 31.4955C22.8531 31.4967 22.809 31.516 22.7767 31.5493C22.7443 31.5826 22.7263 31.6273 22.7264 31.6738C22.7287 31.8423 22.6613 32.0058 22.5379 32.1286C22.4789 32.189 22.4086 32.2369 22.3308 32.2697C22.2531 32.3025 22.1696 32.3194 22.0853 32.3195H22.0801C22.057 32.3197 22.0341 32.3245 22.0129 32.3336C21.9916 32.3427 21.9723 32.3559 21.9562 32.3725C21.94 32.389 21.9273 32.4086 21.9188 32.4301C21.9103 32.4517 21.906 32.4746 21.9064 32.4978C21.9041 32.5458 21.9241 32.5909 21.9567 32.6235C21.9893 32.656 22.0344 32.676 22.0824 32.6738L22.0847 32.676L22.087 32.6738C22.2556 32.676 22.4161 32.7418 22.5367 32.8623L22.539 32.8646C22.6596 32.9852 22.7276 33.1486 22.7299 33.3223C22.7295 33.3572 22.7396 33.3915 22.7588 33.4206C22.7781 33.4497 22.8056 33.4724 22.8379 33.4858C22.8709 33.4989 22.907 33.502 22.9418 33.4949C22.9766 33.4878 23.0086 33.4707 23.0339 33.4458C23.0505 33.4295 23.0636 33.4099 23.0723 33.3882C23.0809 33.3666 23.085 33.3434 23.0841 33.32C23.0864 33.1463 23.1521 32.9858 23.275 32.8623C23.3956 32.7418 23.559 32.6738 23.7299 32.6738C23.7299 32.6738 23.7321 32.6715 23.735 32.6738C23.7581 32.6735 23.781 32.6687 23.8023 32.6596C23.8235 32.6506 23.8428 32.6373 23.859 32.6208C23.8751 32.6042 23.8878 32.5846 23.8963 32.5631C23.9049 32.5416 23.9091 32.5186 23.9087 32.4955C23.9093 32.4722 23.9052 32.449 23.8966 32.4274C23.888 32.4057 23.875 32.3861 23.8586 32.3696C23.8421 32.3532 23.8224 32.3402 23.8008 32.3316C23.7792 32.323 23.756 32.3188 23.7327 32.3195C23.7304 32.3172 23.7304 32.3172 23.7276 32.3195C23.5588 32.3179 23.3973 32.2502 23.2779 32.1309L23.2756 32.1286C23.1546 32.0068 23.0861 31.8425 23.0847 31.6709C23.0881 31.6235 23.0579 31.5635 23.0304 31.5458Z" fill="black"/>
</svg>
