<svg width="40" height="40" viewBox="0 0 40 40" fill="none" xmlns="http://www.w3.org/2000/svg">
<path fill-rule="evenodd" clip-rule="evenodd" d="M29.6031 29.1437V2.875C29.6031 2.47266 29.2758 2.14453 28.8727 2.14453H28.8242C28.4211 2.14453 28.0938 2.47187 28.0938 2.875V29.1437H29.6031ZM7.67187 35.3789H2.29688V37.8227C2.29688 37.8789 2.34375 37.9258 2.39922 37.9258H7.56875C7.62422 37.9258 7.67109 37.8789 7.67109 37.8227V35.3789H7.67187ZM4.22656 23.3039H5.74297V21.2984H4.22656V23.3039ZM2.29688 26.7875H7.67109V25.7016C7.67109 24.8961 7.01641 24.2414 6.21094 24.2414H3.75781C2.95234 24.2414 2.29766 24.8961 2.29766 25.7016V26.7875H2.29688ZM7.67187 27.725H2.29688V34.4414H7.67109V27.725H7.67187ZM7.19141 9.85156L5.60937 9.27578C5.53452 9.24856 5.46784 9.20271 5.41563 9.14257C5.36341 9.08242 5.32738 9.00996 5.31094 8.93203L4.99609 7.43828L4.68047 8.93203C4.66403 9.00996 4.628 9.08242 4.57578 9.14257C4.52356 9.20271 4.45688 9.24856 4.38203 9.27578L2.8 9.85156L4.38203 10.4273C4.45688 10.4546 4.52356 10.5004 4.57578 10.5606C4.628 10.6207 4.66403 10.6932 4.68047 10.7711L4.99609 12.2648L5.31094 10.7711C5.32738 10.6932 5.36341 10.6207 5.41563 10.5606C5.46784 10.5004 5.53452 10.4546 5.60937 10.4273L7.19141 9.85156ZM14.757 10.25L15.2477 7.92578C15.2641 7.84785 15.3001 7.77539 15.3523 7.71525C15.4046 7.6551 15.4712 7.60925 15.5461 7.58203L17.7609 6.77578L15.5461 5.97031C15.4712 5.94309 15.4046 5.89724 15.3523 5.8371C15.3001 5.77695 15.2641 5.70449 15.2477 5.62656L14.757 3.30234L14.2664 5.62656C14.25 5.70449 14.2139 5.77695 14.1617 5.8371C14.1095 5.89724 14.0428 5.94309 13.968 5.97031L11.7531 6.77578L13.968 7.58203C14.0428 7.60925 14.1095 7.6551 14.1617 7.71525C14.2139 7.77539 14.25 7.84785 14.2664 7.92578L14.757 10.25ZM10.6617 18.5078H25.2148C25.1367 17.3914 24.2039 16.507 23.0688 16.507C22.9445 16.507 22.8211 16.5172 22.7 16.5383C22.4523 16.5813 22.2156 16.4203 22.1625 16.1742C21.8953 14.9297 20.775 14.0258 19.5 14.0258C18.4734 14.0258 17.5445 14.5938 17.075 15.5078C17.0194 15.6161 16.9238 15.6986 16.8084 15.7376C16.6931 15.7767 16.5671 15.7694 16.457 15.7172C16.1695 15.5806 15.855 15.5102 15.5367 15.5109C14.7523 15.5109 14.0297 15.9375 13.6508 16.625C13.6032 16.7111 13.5298 16.78 13.4409 16.822C13.352 16.8641 13.2522 16.8772 13.1555 16.8594C13.0266 16.8359 12.8945 16.8234 12.7625 16.8234C11.7375 16.8242 10.8766 17.5461 10.6617 18.5078ZM20.9406 19.4453V21.2391H27.1562V19.4453H20.9406ZM11.6391 21.2398V19.4453H8.28203C8.05703 19.4453 7.87422 19.6281 7.87422 19.8531V20.832C7.87422 21.057 8.05703 21.2398 8.28203 21.2398H11.6391ZM17.2148 27.6453V20.8703C17.2148 20.6117 17.425 20.4016 17.6836 20.4016C17.9422 20.4016 18.1523 20.6117 18.1523 20.8703V24.2563C18.1523 24.7664 18.5672 25.1812 19.0773 25.1812C19.5875 25.1812 20.0023 24.7664 20.0023 24.2563V19.4453H12.5766V25.9437C12.5766 26.4539 12.9914 26.8687 13.5016 26.8687C14.0117 26.8687 14.4266 26.4539 14.4266 25.9437V23.3836C14.4266 23.125 14.6367 22.9148 14.8953 22.9148C15.1547 22.9148 15.3641 23.125 15.3641 23.3836V27.6445C15.3641 28.1547 15.7797 28.5695 16.2898 28.5695C16.8 28.5703 17.2148 28.1555 17.2148 27.6453ZM20.4406 32.7516C20.207 34.4805 19.857 36.2766 18.8852 37.9266H11.3383C11.1492 37.9266 10.9969 37.7844 10.982 37.5969L9.8125 22.1773H11.6398V25.9445C11.6398 26.9719 12.4758 27.807 13.5023 27.807C13.8391 27.807 14.1547 27.7172 14.4273 27.5602V27.6453C14.4273 28.6727 15.2633 29.5078 16.2906 29.5078C17.3172 29.5078 18.1531 28.6719 18.1531 27.6453V25.8719C18.4258 26.0289 18.7414 26.1187 19.0781 26.1187C20.1055 26.1187 20.9406 25.2828 20.9406 24.2563V22.1773H26.0203L25.4914 29.1437H20.9648C19.9492 29.1437 19.1234 29.9703 19.1234 30.9859C19.1227 31.8195 19.6797 32.525 20.4406 32.7516ZM20.9648 31.8891H36.732C37.2297 31.8891 37.6352 31.4836 37.6352 30.9852C37.6352 30.4867 37.2297 30.0812 36.732 30.0812H20.9648C20.4664 30.0812 20.0609 30.4867 20.0609 30.9852C20.0609 31.4844 20.4664 31.8891 20.9648 31.8891ZM36.3203 32.8266H21.3758C21.1508 34.5078 20.8234 36.257 19.9563 37.9258H23.7078V35.8242C23.7078 35.5656 23.918 35.3555 24.1766 35.3555C24.4359 35.3555 24.6453 35.5656 24.6453 35.8242V37.9258H26.8219V35.8242C26.8219 35.5656 27.032 35.3555 27.2906 35.3555C27.55 35.3555 27.7594 35.5656 27.7594 35.8242V37.9258H29.9359V35.8242C29.9359 35.5656 30.1461 35.3555 30.4047 35.3555C30.6633 35.3555 30.8734 35.5656 30.8734 35.8242V37.9258H33.05V35.8242C33.05 35.5656 33.2602 35.3555 33.5188 35.3555C33.7773 35.3555 33.9875 35.5656 33.9875 35.8242V37.9258H37.7398C36.8727 36.257 36.5469 34.5078 36.3203 32.8266Z" fill="black"/>
</svg>
