<svg width="40" height="40" viewBox="0 0 40 40" fill="none" xmlns="http://www.w3.org/2000/svg">
<path fill-rule="evenodd" clip-rule="evenodd" d="M9.23395 33.9781C9.60123 33.4561 10.0796 33.08 10.6155 32.9212C10.8094 32.8644 10.8098 32.5894 10.6165 32.5325C9.40307 32.1748 8.65755 30.7984 8.51691 29.5166C8.49059 29.2765 8.14147 29.2764 8.11395 29.5145C7.96531 30.8033 7.23107 32.1763 6.01507 32.5321C5.82107 32.5889 5.82075 32.8639 6.01403 32.9209C7.22755 33.2785 7.97307 34.655 8.11363 35.9369C8.13995 36.177 8.48907 36.1771 8.51659 35.939C8.60451 35.1849 8.86155 34.5074 9.23395 33.9781ZM14.1828 7.2939V25.7329C14.1828 25.7452 14.1794 25.7573 14.173 25.7678C14.1667 25.7784 14.1575 25.787 14.1466 25.7928C14.1357 25.7985 14.1235 25.8011 14.1112 25.8004C14.0989 25.7997 14.087 25.7956 14.0768 25.7886C13.2841 25.2436 12.5672 24.6774 11.9399 24.1064C11.9329 24.1001 11.9272 24.0924 11.9234 24.0838C11.9196 24.0752 11.9177 24.0658 11.9179 24.0564V8.78462C11.9177 8.77373 11.9203 8.76298 11.9253 8.75331C11.9303 8.74365 11.9377 8.73539 11.9467 8.72926L14.0763 7.23854C14.0864 7.23142 14.0983 7.22722 14.1106 7.22639C14.123 7.22557 14.1353 7.22815 14.1463 7.23386C14.1573 7.23958 14.1665 7.2482 14.1729 7.25878C14.1794 7.26937 14.1828 7.28152 14.1828 7.2939ZM17.4623 14.391V27.6346C17.4623 27.6461 17.4594 27.6574 17.4538 27.6674C17.4483 27.6775 17.4403 27.6859 17.4306 27.692C17.4208 27.6981 17.4097 27.7016 17.3983 27.7022C17.3868 27.7028 17.3754 27.7005 17.3651 27.6954C16.636 27.3409 15.9235 26.9531 15.23 26.5333C15.2199 26.5274 15.2116 26.519 15.2059 26.5088C15.2002 26.4987 15.1972 26.4872 15.1974 26.4755V7.09278C15.1974 7.0814 15.2002 7.07019 15.2057 7.0602C15.2111 7.05021 15.219 7.04177 15.2286 7.03566C15.2382 7.02954 15.2492 7.02595 15.2606 7.02523C15.272 7.0245 15.2833 7.02666 15.2936 7.0315L19.063 8.79054C19.0748 8.79584 19.0847 8.80446 19.0917 8.81535C19.0986 8.82624 19.1022 8.83891 19.102 8.85182V13.0497C19.102 13.0737 19.0906 13.0943 19.0702 13.107L17.7021 13.9609C17.629 14.0064 17.5687 14.0697 17.5268 14.145C17.485 14.2202 17.4631 14.3049 17.4632 14.391H17.4623ZM22.2176 12.4586C22.2177 12.4465 22.2145 12.4347 22.2083 12.4243C22.2022 12.4138 22.1934 12.4052 22.1829 12.3994C22.1723 12.3935 22.1603 12.3906 22.1483 12.3909C22.1362 12.3913 22.1244 12.3948 22.1142 12.4013L18.5088 14.6515C18.4989 14.6575 18.4908 14.6659 18.4852 14.6759C18.4796 14.686 18.4767 14.6974 18.4769 14.7089V28.1604C18.4768 28.1737 18.4806 28.1867 18.4879 28.1978C18.4952 28.2088 18.5057 28.2175 18.518 28.2225C19.7663 28.7571 20.9885 29.1634 22.1342 29.4382C22.1441 29.4407 22.1545 29.4408 22.1645 29.4386C22.1745 29.4364 22.1839 29.432 22.1919 29.4257C22.2 29.4193 22.2065 29.4113 22.2109 29.402C22.2154 29.3928 22.2177 29.3827 22.2176 29.3725V12.4586ZM26.9729 14.7089V29.6482C26.9729 29.6802 26.9514 29.7072 26.9202 29.7142C25.8431 29.957 24.4959 29.879 23.2887 29.6752C23.2729 29.6726 23.2585 29.6645 23.2481 29.6522C23.2378 29.64 23.2322 29.6245 23.2323 29.6085V12.4586C23.2322 12.4465 23.2354 12.4347 23.2416 12.4243C23.2477 12.4138 23.2565 12.4052 23.267 12.3994C23.2776 12.3935 23.2896 12.3906 23.3016 12.3909C23.3137 12.3913 23.3255 12.3948 23.3357 12.4013L26.9411 14.6515C26.9509 14.6575 26.959 14.6659 26.9646 14.6759C26.9702 14.686 26.9731 14.6974 26.9729 14.7089ZM25.4816 33.3461C28.3672 33.3349 30.6146 32.4053 31.5395 30.5601C31.9676 29.7061 32.0691 28.6933 31.8841 27.61C31.872 27.5389 31.9655 27.5008 32.0064 27.5602C32.5239 28.3113 32.9388 29.0732 33.2347 29.8147C33.8257 31.2959 33.9381 32.678 33.43 33.6914C32.6373 35.2729 30.5566 36.0573 27.8335 36.0469C22.1352 36.0251 14.9063 32.5805 10.9374 28.2348C10.1922 27.4189 9.58275 26.5962 9.12891 25.7932C9.08971 25.7238 9.18363 25.6555 9.23755 25.7141C11.1716 27.8173 13.8049 29.7565 15.9751 30.8444C19.3258 32.5239 22.7134 33.3569 25.4816 33.3461ZM24.5949 30.8509C26.9874 31.0109 28.8146 30.4398 29.5235 29.101C29.9324 28.3229 29.8945 27.4481 29.6096 26.6041C29.1882 25.3561 27.9876 24.3615 27.9876 24.2354V22.8277C27.9876 22.7663 28.0627 22.7367 28.1047 22.7815C29.1763 23.9261 29.9809 25.1518 30.4605 26.3309C31.0427 27.7621 31.1388 29.1049 30.6359 30.1082C29.8969 31.5824 27.9798 32.3256 25.4776 32.3353C22.858 32.3456 19.6341 31.5481 16.427 29.9405C13.2665 28.3563 7.82467 24.1043 7.27403 20.1848C6.93051 17.7397 8.54539 16.4204 10.8215 15.9362C10.8313 15.9341 10.8415 15.9342 10.8514 15.9365C10.8612 15.9389 10.8703 15.9434 10.8782 15.9497C10.886 15.9561 10.8923 15.9641 10.8967 15.9732C10.901 15.9823 10.9033 15.9923 10.9032 16.0024V16.7405C10.9032 16.7725 10.8816 16.7994 10.8503 16.8065C9.79179 17.0435 8.86027 17.5452 8.39115 18.5106C7.74395 19.8787 8.38011 21.6834 9.93955 23.5041C13.1433 27.2446 19.6811 30.5223 24.5949 30.8509ZM8.58219 13.4042C8.94947 12.8822 9.42787 12.5061 9.96371 12.3473C10.1576 12.2906 10.158 12.0156 9.96475 11.9586C8.75131 11.6009 8.00579 10.2245 7.86515 8.94278C7.83883 8.70262 7.48971 8.70254 7.46219 8.94062C7.31355 10.2294 6.57939 11.6025 5.36331 11.9583C5.16939 12.015 5.16899 12.2901 5.36227 12.347C6.57571 12.7047 7.32131 14.0812 7.46187 15.363C7.48819 15.6032 7.83731 15.6033 7.86483 15.3652C7.95267 14.6111 8.20971 13.9336 8.58219 13.4042ZM33.272 20.3785C33.642 19.7333 34.1213 19.2695 34.6562 19.0753C34.8327 19.0112 34.834 18.7593 34.6562 18.6948C33.3614 18.2251 32.6706 16.3842 32.5447 14.9546C32.5231 14.7094 32.1647 14.7095 32.1418 14.9521C32.0528 15.8897 31.792 16.7326 31.4141 17.3917C31.0442 18.0369 30.5648 18.5007 30.03 18.6948C29.8536 18.7589 29.8521 19.0108 30.03 19.0753C31.3248 19.5449 32.0156 21.386 32.1415 22.8156C32.1631 23.0608 32.5214 23.0607 32.5444 22.8181C32.6333 21.8805 32.8941 21.0376 33.272 20.3785ZM26.4827 8.52454C26.85 8.00254 27.3284 7.62646 27.8642 7.46766C28.0581 7.41094 28.0585 7.13598 27.8652 7.07894C26.652 6.72126 25.9061 5.3447 25.7656 4.06318C25.7393 3.82294 25.3902 3.82286 25.3627 4.06094C25.214 5.34974 24.4798 6.72286 23.2638 7.07862C23.0699 7.13534 23.0695 7.4103 23.2628 7.46734C24.4761 7.82502 25.222 9.20166 25.3624 10.4833C25.3887 10.7235 25.7378 10.7236 25.7653 10.4855C25.8532 9.73142 26.1103 9.0539 26.4827 8.52454Z" fill="black"/>
</svg>
