<svg width="40" height="40" viewBox="0 0 40 40" fill="none" xmlns="http://www.w3.org/2000/svg">
<path d="M22.1036 10.6019C22.8261 10.7815 23.4951 11.1311 24.0552 11.6214C24.6153 12.1118 25.0502 12.7289 25.3236 13.4213L25.5549 14.0588C25.9368 14.56 26.0955 13.7644 26.2299 13.4213C26.4488 12.8302 26.7929 12.2934 27.2387 11.8478C27.6844 11.4021 28.2213 11.0581 28.8124 10.8394C29.0911 10.705 29.6349 10.6356 29.6061 10.3831C29.6361 10.1294 29.0474 10.0469 28.8124 9.93313C28.12 9.66049 27.5031 9.22573 27.0135 8.66533C26.5239 8.10493 26.1758 7.43524 25.9986 6.7125C25.9815 6.66756 25.9511 6.62889 25.9115 6.60161C25.8718 6.57433 25.8249 6.55972 25.7768 6.55972C25.7287 6.55972 25.6817 6.57433 25.6421 6.60161C25.6024 6.62889 25.572 6.66756 25.5549 6.7125C25.3776 7.43513 25.0295 8.10469 24.5399 8.66497C24.0503 9.22526 23.4335 9.65993 22.7411 9.9325L22.1036 10.1638C22.0599 10.1812 22.0225 10.2114 21.9961 10.2504C21.9697 10.2894 21.9556 10.3354 21.9556 10.3825C21.9556 10.4296 21.9697 10.4756 21.9961 10.5146C22.0225 10.5536 22.0599 10.5844 22.1036 10.6019ZM4.04676 21.4625C4.74292 21.6465 5.36255 22.047 5.81613 22.6063C6.0803 22.9759 6.27902 23.3881 6.40363 23.825C6.42798 23.8828 6.46884 23.9321 6.52109 23.9668C6.57334 24.0015 6.63466 24.02 6.69738 24.02C6.7601 24.02 6.82142 24.0015 6.87367 23.9668C6.92593 23.9321 6.96678 23.8828 6.99113 23.825C7.10979 23.3331 7.34504 22.8771 7.67704 22.4952C8.00904 22.1134 8.42802 21.8171 8.89863 21.6313L9.34863 21.4625C9.70801 21.2956 9.56613 20.8825 9.20488 20.8244C8.66584 20.668 8.1775 20.3724 7.78899 19.9673C7.40048 19.5622 7.12552 19.062 6.99176 18.5169C6.96473 18.462 6.92289 18.4159 6.87097 18.3836C6.81906 18.3513 6.75914 18.3342 6.69801 18.3342C6.63687 18.3342 6.57696 18.3513 6.52504 18.3836C6.47313 18.4159 6.43129 18.462 6.40426 18.5169L6.24176 18.9669C6.05623 19.4381 5.75978 19.8576 5.37755 20.1897C4.99532 20.5219 4.53859 20.757 4.04613 20.875C3.98661 20.8977 3.93538 20.9379 3.89924 20.9904C3.8631 21.0428 3.84375 21.105 3.84375 21.1688C3.84375 21.2325 3.8631 21.2947 3.89924 21.3471C3.93538 21.3996 3.98723 21.4398 4.04676 21.4625ZM35.8711 26.0388C35.1646 25.852 34.536 25.4448 34.0768 24.8763C33.8039 24.4988 33.5968 24.0778 33.4643 23.6313C33.4442 23.5904 33.413 23.5559 33.3744 23.5319C33.3357 23.5078 33.2911 23.495 33.2455 23.495C33.2 23.495 33.1553 23.5078 33.1167 23.5319C33.078 23.5559 33.0469 23.5904 33.0268 23.6313C32.9037 24.1339 32.6616 24.5997 32.321 24.9893C31.9803 25.3789 31.551 25.681 31.0693 25.87L30.6193 26.0388C30.576 26.0567 30.5391 26.0871 30.5131 26.126C30.4871 26.1649 30.4733 26.2107 30.4733 26.2575C30.4733 26.3043 30.4871 26.3501 30.5131 26.389C30.5391 26.4279 30.576 26.4583 30.6193 26.4763C30.7336 26.5175 30.9568 26.6044 31.0693 26.645C31.5501 26.8354 31.9785 27.1379 32.3189 27.5273C32.6593 27.9167 32.9017 28.3817 33.0261 28.8838C33.043 28.9286 33.0728 28.9673 33.1117 28.9952C33.1507 29.023 33.197 29.0386 33.2449 29.04C33.2932 29.0404 33.3403 29.0255 33.3796 28.9974C33.4189 28.9693 33.4483 28.9296 33.4636 28.8838C33.5867 28.381 33.8287 27.9153 34.1694 27.5256C34.51 27.136 34.9393 26.834 35.4211 26.645L35.8711 26.4763C35.9162 26.46 35.9551 26.4303 35.9826 26.3912C36.0101 26.352 36.0249 26.3054 36.0249 26.2575C36.0249 26.2097 36.0101 26.163 35.9826 26.1238C35.9551 26.0847 35.9162 26.055 35.8711 26.0388Z" fill="black"/>
<path d="M36.8213 22.5813L30.1556 19.08C29.4013 19.48 22.2863 23.2163 21.3394 23.7188C22.2975 24.2275 29.4081 27.95 30.1556 28.3519L30.9181 27.9519C30.4975 27.7056 29.9038 27.6469 29.5869 27.2394C29.4606 27.0969 29.3629 26.9314 29.2994 26.7519V25.7638C29.6781 24.5938 31.3381 24.8963 31.6869 23.65C31.7392 23.3586 31.864 23.0851 32.0498 22.8547C32.2356 22.6242 32.4764 22.4442 32.75 22.3313H33.5813C33.8218 22.3607 34.0489 22.458 34.2361 22.6119C34.4233 22.7657 34.5627 22.9697 34.6381 23.2C34.7426 23.5991 34.9372 23.969 35.2069 24.2813C35.5438 24.6688 36.1288 24.7425 36.5513 24.9881C36.7995 24.9152 37.0206 24.7705 37.1869 24.5723C37.3531 24.3741 37.4572 24.1312 37.4859 23.874C37.5146 23.6169 37.4667 23.3571 37.3482 23.1271C37.2298 22.8971 37.046 22.7072 36.82 22.5813H36.8213ZM20.0025 23.0125C20.96 22.5119 28.0513 18.7738 28.8119 18.3731L20.8963 14.2094C20.6192 14.0616 20.31 13.9843 19.996 13.9843C19.6819 13.9843 19.3727 14.0616 19.0956 14.2094L11.18 18.3669C11.8813 18.725 19.0969 22.5419 20.0025 23.0125ZM18.6581 23.7188C17.6938 23.2063 10.5925 19.4738 9.83564 19.0738L9.13564 19.4425C9.1992 19.48 9.26617 19.5114 9.33564 19.5363C10.9856 19.8713 11.3919 21.9425 9.7794 22.6375L9.33564 22.8C9.03695 22.9301 8.77413 23.1305 8.56955 23.384C8.36496 23.6376 8.22468 23.9368 8.16064 24.2563C8.04456 24.5505 7.84265 24.803 7.58115 24.9809C7.31966 25.1588 7.01069 25.254 6.69439 25.254C6.3781 25.254 6.06913 25.1588 5.80763 24.9809C5.54614 24.803 5.34423 24.5505 5.22814 24.2563C5.16746 23.9363 5.02907 23.6361 4.82516 23.3822C4.62126 23.1283 4.35808 22.9284 4.05877 22.8L3.60877 22.6375C3.51238 22.6018 3.42017 22.5557 3.33377 22.5L3.17127 22.5813C2.9681 22.6922 2.79856 22.8559 2.68044 23.055C2.56233 23.2541 2.5 23.4813 2.5 23.7128C2.5 23.9443 2.56233 24.1716 2.68044 24.3707C2.79856 24.5698 2.9681 24.7334 3.17127 24.8444L9.8419 28.3519C10.595 27.9506 17.7119 24.2206 18.6581 23.7188ZM20.0025 24.4188C19.0369 24.925 11.9481 28.6563 11.18 29.0588L19.0956 33.2225C19.3741 33.3659 19.6828 33.4407 19.996 33.4407C20.3091 33.4407 20.6178 33.3659 20.8963 33.2225L28.8119 29.0588C28.1194 28.7013 20.9025 24.885 20.0025 24.4188ZM14.7875 14.8844C15.2991 14.8844 15.7896 14.6812 16.1514 14.3195C16.5131 13.9578 16.7163 13.4672 16.7163 12.9556C16.7163 12.4441 16.5131 11.9535 16.1514 11.5918C15.7896 11.2301 15.2991 11.0269 14.7875 11.0269C14.276 11.0269 13.7854 11.2301 13.4237 11.5918C13.062 11.9535 12.8588 12.4441 12.8588 12.9556C12.8588 13.4672 13.062 13.9578 13.4237 14.3195C13.7854 14.6812 14.276 14.8844 14.7875 14.8844ZM7.72877 13.5838C8.40748 13.5732 9.05481 13.2962 9.53104 12.8125C10.0073 12.3288 10.2742 11.6772 10.2742 10.9984C10.2742 10.3197 10.0073 9.66809 9.53104 9.1844C9.05481 8.70071 8.40748 8.42368 7.72877 8.41313C7.05006 8.42368 6.40273 8.70071 5.9265 9.1844C5.45027 9.66809 5.18334 10.3197 5.18334 10.9984C5.18334 11.6772 5.45027 12.3288 5.9265 12.8125C6.40273 13.2962 7.05006 13.5732 7.72877 13.5838Z" fill="black"/>
</svg>
