<svg width="40" height="40" viewBox="0 0 40 40" fill="none" xmlns="http://www.w3.org/2000/svg">
<path d="M20.625 13.1281V9.325C21.4087 9.21339 22.1472 8.89075 22.7616 8.39163C23.376 7.8925 23.843 7.23568 24.1128 6.49148C24.3825 5.74729 24.4448 4.94374 24.2929 4.16688C24.1411 3.39001 23.7808 2.66907 23.2506 2.08125C23.1921 2.01646 23.1207 1.96463 23.0409 1.92911C22.9611 1.89359 22.8748 1.87516 22.7875 1.875H17.2125C17.1252 1.87508 17.0389 1.89341 16.9592 1.92883C16.8794 1.96424 16.808 2.01595 16.7494 2.08062C16.2191 2.66844 15.8586 3.38942 15.7066 4.16638C15.5547 4.94334 15.6169 5.747 15.8867 6.4913C16.1564 7.2356 16.6236 7.89251 17.238 8.39167C17.8525 8.89084 18.5912 9.21347 19.375 9.325V13.1281C12.1112 13.1925 1.875 14.3806 1.875 17.5V18.2938C5.5375 15.2781 16.255 15 20 15C23.745 15 34.4625 15.2781 38.125 18.2938V17.5C38.125 14.3806 27.8888 13.1925 20.625 13.1281ZM14.375 20.625C14.3782 20.5576 14.3851 20.4904 14.3956 20.4238C13.135 20.3334 11.8775 20.2034 10.625 20.0338V24.4038C11.8425 24.5663 13.11 24.6944 14.375 24.7881V20.625ZM20 25C20.6031 25 21.2313 24.9912 21.875 24.975V20.625C21.875 20.6169 21.8775 20.6094 21.8775 20.6006C21.2575 20.615 20.6325 20.625 20 20.625C19.3675 20.625 18.7425 20.6156 18.1225 20.6006C18.1225 20.6094 18.125 20.6169 18.125 20.625V24.975C18.7687 24.9912 19.3969 25 20 25ZM29.375 24.4038V20.0338C28.1225 20.2034 26.865 20.3334 25.6044 20.4238C25.6149 20.4904 25.6218 20.5576 25.625 20.625V24.7881C26.89 24.6944 28.1575 24.5669 29.375 24.4038Z" fill="black"/>
<path d="M36.1763 18.4963C33.25 17.1312 26.9 16.25 20 16.25C13.1 16.25 6.75063 17.1312 3.82375 18.4963C2.53 19.0988 1.875 19.815 1.875 20.625C1.875 22.0263 3.94187 23.0369 6.875 23.7313V19.375C6.875 19.36 5.96125 19.0844 5.88125 19.06C8.93625 18.1313 13.9325 17.5463 19.375 17.5038V18.75C19.375 18.9158 19.4408 19.0747 19.5581 19.1919C19.6753 19.3092 19.8342 19.375 20 19.375C20.1658 19.375 20.3247 19.3092 20.4419 19.1919C20.5592 19.0747 20.625 18.9158 20.625 18.75V17.5044C26.0675 17.5463 31.0637 18.1313 34.1188 19.06C34.0387 19.0844 33.1487 19.3294 33.1225 19.3363C33.1231 19.35 33.125 19.36 33.125 19.375V23.7313C36.0581 23.0369 38.125 22.0263 38.125 20.625C38.125 19.815 37.4694 19.0988 36.1763 18.4963ZM35.625 31.365V24.3125C35.1813 24.4725 34.755 24.6019 34.375 24.7063V31.3656C34.0105 31.494 33.6947 31.732 33.4709 32.047C33.2471 32.362 33.1263 32.7386 33.125 33.125C33.125 33.9238 34.0762 35.3875 34.4856 35.98C34.5431 36.0633 34.6199 36.1314 34.7095 36.1784C34.7991 36.2254 34.8988 36.25 35 36.25C35.1012 36.25 35.2009 36.2254 35.2905 36.1784C35.3801 36.1314 35.4569 36.0633 35.5144 35.98C35.9238 35.3881 36.875 33.9238 36.875 33.125C36.8739 32.7385 36.7531 32.3618 36.5293 32.0467C36.3055 31.7315 35.9896 31.4934 35.625 31.365ZM5.625 31.365V24.705C5.20334 24.5904 4.78635 24.4593 4.375 24.3119V31.365C4.01043 31.4934 3.69455 31.7315 3.47074 32.0467C3.24692 32.3618 3.12615 32.7385 3.125 33.125C3.125 33.9238 4.07625 35.3875 4.48563 35.98C4.5431 36.0633 4.61994 36.1314 4.70954 36.1784C4.79914 36.2254 4.89881 36.25 5 36.25C5.10119 36.25 5.20086 36.2254 5.29046 36.1784C5.38006 36.1314 5.4569 36.0633 5.51437 35.98C5.92375 35.3881 6.875 33.9238 6.875 33.125C6.87385 32.7385 6.75308 32.3618 6.52926 32.0467C6.30545 31.7315 5.98957 31.4934 5.625 31.365ZM13.125 33.24V25.9325C12.708 25.8954 12.2913 25.8543 11.875 25.8094V33.2406C11.5105 33.369 11.1947 33.607 10.9709 33.922C10.7471 34.237 10.6263 34.6136 10.625 35C10.625 35.7988 11.5763 37.2625 11.9856 37.855C12.0431 37.9383 12.1199 38.0064 12.2095 38.0534C12.2991 38.1004 12.3988 38.125 12.5 38.125C12.6012 38.125 12.7009 38.1004 12.7905 38.0534C12.8801 38.0064 12.9569 37.9383 13.0144 37.855C13.4237 37.2631 14.375 35.7988 14.375 35C14.3739 34.6135 14.2531 34.2368 14.0293 33.9217C13.8055 33.6065 13.4896 33.3684 13.125 33.24ZM20.625 33.24V26.2456C20.415 26.2475 20.2044 26.25 20 26.25C19.7956 26.25 19.585 26.2475 19.375 26.2456V33.24C19.0104 33.3684 18.6945 33.6065 18.4707 33.9217C18.2469 34.2368 18.1261 34.6135 18.125 35C18.125 35.7988 19.0763 37.2625 19.4856 37.855C19.5431 37.9383 19.6199 38.0064 19.7095 38.0534C19.7991 38.1004 19.8988 38.125 20 38.125C20.1012 38.125 20.2009 38.1004 20.2905 38.0534C20.3801 38.0064 20.4569 37.9383 20.5144 37.855C20.9238 37.2631 21.875 35.7988 21.875 35C21.8739 34.6135 21.7531 34.2368 21.5293 33.9217C21.3055 33.6065 20.9896 33.3684 20.625 33.24ZM28.125 33.24V25.8088C27.715 25.8544 27.2981 25.8944 26.875 25.9325V33.24C26.5104 33.3684 26.1945 33.6065 25.9707 33.9217C25.7469 34.2368 25.6261 34.6135 25.625 35C25.625 35.7988 26.5762 37.2625 26.9856 37.855C27.0431 37.9383 27.1199 38.0064 27.2095 38.0534C27.2991 38.1004 27.3988 38.125 27.5 38.125C27.6012 38.125 27.7009 38.1004 27.7905 38.0534C27.8801 38.0064 27.9569 37.9383 28.0144 37.855C28.4238 37.2631 29.375 35.7988 29.375 35C29.3739 34.6135 29.2531 34.2368 29.0293 33.9217C28.8055 33.6065 28.4896 33.3684 28.125 33.24Z" fill="black"/>
<path d="M9.375 26.99V19.545C8.94125 19.62 8.5225 19.6981 8.125 19.7819V26.99C7.76043 27.1184 7.44455 27.3565 7.22074 27.6717C6.99692 27.9868 6.87615 28.3635 6.875 28.75C6.875 29.5487 7.82625 31.0125 8.23563 31.605C8.2931 31.6883 8.36994 31.7564 8.45954 31.8034C8.54914 31.8504 8.64881 31.875 8.75 31.875C8.85119 31.875 8.95086 31.8504 9.04046 31.8034C9.13006 31.7564 9.2069 31.6883 9.26437 31.605C9.67375 31.0131 10.625 29.5487 10.625 28.75C10.6239 28.3635 10.5031 27.9868 10.2793 27.6717C10.0554 27.3565 9.73957 27.1184 9.375 26.99ZM16.875 26.365V18.8112C16.4531 18.8281 16.0375 18.8487 15.625 18.8725V26.365C15.2604 26.4934 14.9445 26.7315 14.7207 27.0467C14.4969 27.3618 14.3761 27.7385 14.375 28.125C14.375 28.9237 15.3263 30.3875 15.7356 30.98C15.7931 31.0633 15.8699 31.1314 15.9595 31.1784C16.0491 31.2254 16.1488 31.25 16.25 31.25C16.3512 31.25 16.4509 31.2254 16.5405 31.1784C16.6301 31.1314 16.7069 31.0633 16.7644 30.98C17.1737 30.3881 18.125 28.9237 18.125 28.125C18.1239 27.7385 18.0031 27.3618 17.7793 27.0467C17.5555 26.7315 17.2396 26.4934 16.875 26.365ZM31.875 26.99V19.7819C31.4599 19.6951 31.0431 19.6161 30.625 19.545V26.99C30.2604 27.1184 29.9445 27.3565 29.7207 27.6717C29.4969 27.9868 29.3761 28.3635 29.375 28.75C29.375 29.5487 30.3262 31.0125 30.7356 31.605C30.7931 31.6883 30.8699 31.7564 30.9595 31.8034C31.0491 31.8504 31.1488 31.875 31.25 31.875C31.3512 31.875 31.4509 31.8504 31.5405 31.8034C31.6301 31.7564 31.7069 31.6883 31.7644 31.605C32.1738 31.0131 33.125 29.5487 33.125 28.75C33.1239 28.3635 33.0031 27.9868 32.7793 27.6717C32.5555 27.3565 32.2396 27.1184 31.875 26.99ZM24.375 26.365V18.8725C23.9625 18.8494 23.5469 18.8287 23.125 18.8112V26.365C22.7604 26.4934 22.4445 26.7315 22.2207 27.0467C21.9969 27.3618 21.8761 27.7385 21.875 28.125C21.875 28.9237 22.8262 30.3875 23.2356 30.98C23.2931 31.0633 23.3699 31.1314 23.4595 31.1784C23.5491 31.2254 23.6488 31.25 23.75 31.25C23.8512 31.25 23.9509 31.2254 24.0405 31.1784C24.1301 31.1314 24.2069 31.0633 24.2644 30.98C24.6738 30.3881 25.625 28.9237 25.625 28.125C25.6239 27.7385 25.5031 27.3618 25.2793 27.0467C25.0555 26.7315 24.7396 26.4934 24.375 26.365Z" fill="black"/>
</svg>
